<svg width="48" height="48" viewBox="0 0 48 48" fill="none" xmlns="http://www.w3.org/2000/svg">
<g clip-path="url(#clip0_1_64)">
<path d="M27.4788 3.1272C20.6471 3.1272 15.1717 8.65299 15.1717 15.4342C15.1717 22.2659 20.6975 27.7413 27.4788 27.7413C34.2604 27.7413 39.7858 22.2155 39.7858 15.4342C39.8363 8.60258 34.3105 3.1272 27.4788 3.1272ZM31.0455 20.3068C30.4929 20.96 29.7897 21.412 28.9858 21.6128C28.634 21.7134 28.4834 21.9141 28.4834 22.2659V23.3711C28.4834 23.6724 28.3327 23.8735 27.9809 23.8735H27.3782H26.8256C26.4738 23.8735 26.3232 23.6727 26.3232 23.3209V22.5171C26.3232 21.9145 26.3232 21.9145 25.7205 21.8139C25.0172 21.7133 24.314 21.5126 23.6107 21.2112C23.1082 20.96 23.0581 20.8093 23.2088 20.3072C23.3094 19.9053 23.4096 19.5034 23.5606 19.1015C23.6612 18.8002 23.7614 18.6996 23.9124 18.6996C24.013 18.6996 24.1132 18.7497 24.2642 18.8503C25.0175 19.2522 25.7713 19.453 26.5751 19.5535C26.7258 19.5535 26.8764 19.6036 26.977 19.6036C27.3789 19.6036 27.7303 19.5535 28.0821 19.3524C28.9861 18.9505 29.1372 17.8958 28.3835 17.2928C28.1322 17.092 27.8309 16.941 27.5295 16.7903C26.7257 16.4385 25.9219 16.1876 25.1686 15.7352C23.9629 14.9819 23.1595 14.0274 23.2597 12.5203C23.3602 10.8626 24.3147 9.80792 25.8214 9.25536C26.4746 9.00413 26.4746 9.05458 26.4746 8.35135V7.69822C26.4746 7.19574 26.5751 7.09553 27.0773 7.09553H27.2279H27.5293H27.6298C28.5844 7.09553 28.5844 7.14563 28.5844 8.1506C28.5844 8.90395 28.5844 8.90395 29.3377 9.00451C29.8903 9.10508 30.4428 9.25575 30.9954 9.50698C31.2967 9.65766 31.3973 9.85878 31.2967 10.1601C31.1461 10.6121 31.0455 11.0641 30.8948 11.5165C30.7943 11.7677 30.694 11.9184 30.543 11.9184C30.4425 11.9184 30.3422 11.8683 30.1912 11.8178C29.4379 11.466 28.6842 11.3154 27.8803 11.3154H27.579C27.3278 11.3154 27.127 11.3655 26.8758 11.466C26.0719 11.8178 25.9717 12.6717 26.6245 13.2244C26.9763 13.4756 27.3278 13.6764 27.7798 13.8775C28.483 14.1788 29.1863 14.4301 29.8394 14.832C31.9498 15.8362 32.5021 18.4986 31.0455 20.3069L31.0455 20.3068ZM46.3163 30.5041C45.4123 30.454 43.5033 31.5087 42.9507 31.7599C41.0921 32.7144 38.5301 34.2716 36.8223 35.4772C36.7217 35.5778 36.571 35.678 36.4204 35.7285C35.667 36.2309 34.8632 36.5824 33.9589 36.7835C29.0361 37.8887 21.8527 37.9892 21.8527 37.9892H21.4508C21.1495 37.9892 20.8481 37.7884 20.7977 37.4868C20.7476 37.135 20.9985 36.8336 21.3503 36.7835L31.9996 35.7284C33.1549 35.5778 34.1094 34.4726 33.9587 33.1667C33.808 31.8607 32.7029 30.9563 31.4972 31.0569L22.0032 30.9563C21.3501 30.9563 20.3455 30.8056 19.6923 30.6045C13.5639 28.746 10.1481 30.5039 8.28946 31.3078C7.88756 30.6045 7.08379 30.1525 6.22983 30.2026L2.31274 30.504C0.956366 30.6045 -0.0482012 31.7598 0.00185223 33.1162L0.654987 42.5599C0.755552 43.9163 1.91081 44.9209 3.26718 44.8708L7.33596 44.5695C8.18987 44.5194 8.89308 43.9668 9.19448 43.2131L27.1276 44.0169C29.1367 44.2177 30.9956 43.9668 32.7536 43.0124L33.2561 42.711L46.8189 34.4728C47.4721 34.0709 47.9742 33.3677 47.9742 32.5639C48.1249 31.6595 47.6227 30.6048 46.3165 30.5043L46.3163 30.5041ZM4.7737 42.6102C4.02036 42.6102 3.36718 42.0075 3.36718 41.2037C3.36718 40.4503 3.96987 39.7972 4.7737 39.7972C5.52705 39.7972 6.18022 40.3999 6.18022 41.2037C6.18022 42.0072 5.57754 42.6102 4.7737 42.6102ZM36.0185 31.9609C37.4251 31.157 40.238 29.7505 41.7951 29.0974C42.5485 28.7961 43.3022 28.7961 44.0055 29.2982C43.4529 29.499 42.9504 29.7502 42.4483 30.0014C40.8407 30.8553 38.0278 32.4125 36.6212 33.4171C36.4706 33.5176 36.3199 33.6179 36.2193 33.7184V32.9146C36.1692 32.5628 36.1188 32.2615 36.0186 31.9601V31.9608L36.0185 31.9609ZM34.1596 29.5999C35.1142 29.0974 37.2239 28.3942 38.1279 27.9923C38.8812 27.6909 39.6349 27.6909 40.3382 28.1931C39.2331 28.6955 37.1233 29.499 36.1187 30.0516L35.4155 30.4535C35.3654 30.5036 35.3149 30.5541 35.2147 30.6042C34.9134 30.203 34.5616 29.8512 34.1596 29.6L34.1596 29.5999Z" fill="#FA522D"/>
</g>
<defs>
<clipPath id="clip0_1_64">
<rect width="48" height="48" fill="white"/>
</clipPath>
</defs>
</svg>
