<svg width="48" height="48" viewBox="0 0 48 48" fill="none" xmlns="http://www.w3.org/2000/svg">
<g clip-path="url(#clip0_1_76)">
<path d="M24.5009 30.3633V28.0585C25.1022 28.1589 25.7034 28.3592 26.2044 28.7601L27.0059 27.6579C26.2044 27.157 25.4025 26.8563 24.5006 26.756V26.1548H23.699V26.756C22.8974 26.756 22.2962 27.0567 21.7949 27.4576C21.294 27.8586 21.0933 28.4598 21.0933 29.1611C21.0933 29.8627 21.2936 30.3636 21.6946 30.7646C22.0955 31.1655 22.7968 31.3658 23.6987 31.6664L23.6993 33.9708C22.9977 33.8705 22.2965 33.4699 21.5949 32.9686L20.693 33.9708C21.5949 34.7724 22.5971 35.1734 23.6993 35.2737V36.1756H24.5009V35.2737C25.3025 35.2737 26.0041 34.973 26.505 34.5721C27.0059 34.1711 27.2066 33.5699 27.2066 32.8686C27.2066 32.167 27.0063 31.6661 26.6053 31.2651C26.1044 30.8642 25.5031 30.5636 24.5009 30.3633ZM23.6993 30.1626C23.2984 30.0623 22.8978 29.862 22.7975 29.6617C22.5971 29.4614 22.5971 29.2607 22.5971 29.0604C22.5971 28.7598 22.6975 28.5595 22.8978 28.3588C23.0981 28.1585 23.3987 28.0582 23.6993 28.0582V30.1626ZM25.4028 33.6702C25.2025 33.8705 24.9019 33.9708 24.5009 33.9708V31.7661C25.0019 31.8664 25.3025 32.0667 25.5031 32.267C25.7034 32.4673 25.8038 32.668 25.8038 32.9686C25.8038 33.2693 25.6035 33.4696 25.4028 33.6702Z" fill="#FA522D"/>
<path d="M24.0001 22.2462C19.0897 22.2462 15.0817 26.2547 15.0817 31.1646C15.0817 36.0751 19.0902 40.0831 24.0001 40.0831C28.9106 40.0831 32.9186 36.0746 32.9186 31.1646C32.9186 26.2542 28.9104 22.2462 24.0001 22.2462ZM24.0001 38.7809C19.8916 38.7809 16.4844 35.3737 16.4844 31.2651C16.4844 27.1566 19.8916 23.7494 24.0001 23.7494C28.1087 23.7494 31.5159 27.1566 31.5159 31.2651C31.5159 35.3737 28.1087 38.7809 24.0001 38.7809Z" fill="#FA522D"/>
<path d="M30.5135 14.4298H31.4154C32.5176 14.4298 33.4195 13.5279 33.4195 12.4257C33.4195 11.3235 32.5176 10.4216 31.4154 10.4216H31.1148C33.0189 7.41529 33.6202 3.70739 32.5176 0C28.5091 1.00222 25.5028 3.60758 23.9996 7.01485C22.4965 3.60758 19.3898 1.00222 15.4816 0C14.3794 3.7079 14.9807 7.51578 16.8845 10.4216H16.5838C15.4816 10.4216 14.5797 11.3235 14.5797 12.4257C14.5797 13.5279 15.4816 14.4298 16.5838 14.4298H17.4857C10.5719 20.5424 5.76196 28.9597 5.76196 36.6765C5.76196 46.7975 13.879 48 24 48C34.1209 48 42.238 46.7975 42.238 36.6765C42.238 28.9601 37.4281 20.5421 30.5135 14.4298ZM24 41.8869C18.0877 41.8869 13.2777 37.0768 13.2777 31.1646C13.2777 25.2525 18.0878 20.4424 24 20.4424C29.9121 20.4424 34.7222 25.2525 34.7222 31.1646C34.7222 37.0768 29.9121 41.8869 24 41.8869Z" fill="#FA522D"/>
</g>
<defs>
<clipPath id="clip0_1_76">
<rect width="48" height="48" fill="white"/>
</clipPath>
</defs>
</svg>
