<svg width="48" height="48" viewBox="0 0 48 48" fill="none" xmlns="http://www.w3.org/2000/svg">
<g clip-path="url(#clip0_1_70)">
<path d="M28.2935 8.91118C30.7239 10.5313 30.7239 13.3669 28.2935 15.1897C27.6858 15.5948 27.0784 15.7974 26.4707 16V17.215C26.4707 18.2275 25.0531 18.2275 25.0531 17.215V16.2026H24.0406V17.215C24.0406 18.2275 22.8256 18.2275 22.8256 17.215V16C22.0153 15.7974 21.2054 15.5948 20.5977 15.1897C19.5852 14.3794 18.7749 13.1644 18.7749 11.9493C18.7749 10.3291 21.6105 10.3291 21.6105 11.9493C21.6105 12.3544 22.0156 12.7596 22.4207 13.1644C22.4207 13.1644 22.6233 13.3669 22.8259 13.3669V9.924C22.0156 9.924 21.4083 9.51886 20.598 9.11374C18.3701 7.29095 18.3701 4.45538 20.598 2.83522C21.2057 2.43009 22.0156 2.02496 22.8259 1.82277V0.607694C22.8259 -0.202565 24.041 -0.202565 24.041 0.607694V1.62014H25.0534V0.607694C25.0534 -0.202565 26.471 -0.202565 26.471 0.607694V2.02531C27.0787 2.22788 27.6861 2.43044 28.2938 2.83557C29.5089 3.64583 30.1166 4.65836 30.1166 5.87335C30.1166 7.69613 27.281 7.69613 27.281 5.87335C27.281 5.46821 27.0784 5.06309 26.6733 4.8609C26.4707 4.65833 26.4708 4.65833 26.4708 4.65833V8.10127C27.0784 8.10127 27.6858 8.50605 28.2935 8.91118ZM26.4707 10.734V13.367C26.4707 13.1644 26.4707 13.1644 26.6733 13.1644C27.4835 12.5567 27.4835 11.5443 26.6733 10.9366L26.4707 10.734ZM25.0531 13.7717V10.3288C24.8505 10.1262 24.4454 10.1262 24.0406 10.1262V13.7717L25.0531 13.7717ZM22.8252 4.65782C22.6226 4.65782 22.4201 4.65781 22.4201 4.86038C21.4076 5.46807 21.4076 6.48054 22.4201 7.08825C22.4201 7.29082 22.6226 7.29082 22.8252 7.29082V4.65782ZM25.0531 4.25268H24.0406V7.69562C24.4458 7.69562 24.6483 7.69562 25.0531 7.89819V4.25268Z" fill="#FA522D"/>
<path fill-rule="evenodd" clip-rule="evenodd" d="M5.40796 23.0891H9.80447V47.8543H5.40796V23.0891Z" fill="#FA522D"/>
<path fill-rule="evenodd" clip-rule="evenodd" d="M12.9011 26.9367H17.3568V48H12.9011V26.9367Z" fill="#FA522D"/>
<path fill-rule="evenodd" clip-rule="evenodd" d="M20.5973 30.5821H24.8505V48H20.5973V30.5821Z" fill="#FA522D"/>
<path fill-rule="evenodd" clip-rule="evenodd" d="M28.0912 34.2275H32.3444V48H28.0912V34.2275Z" fill="#FA522D"/>
<path fill-rule="evenodd" clip-rule="evenodd" d="M35.5843 37.8738H39.9808V47.8397H35.5843V37.8738Z" fill="#FA522D"/>
<path fill-rule="evenodd" clip-rule="evenodd" d="M5.40797 8.10169L15.1296 12.9623L12.0918 14.785C20.1931 22.2786 29.9142 27.3421 41.2559 30.3798C43.6863 30.9875 42.4709 34.4304 40.2434 33.8227C27.8887 30.5823 17.3579 24.9119 8.85082 17.0126L5.61042 19.0379L5.40797 8.10169Z" fill="#FA522D"/>
</g>
<defs>
<clipPath id="clip0_1_70">
<rect width="48" height="48" fill="white"/>
</clipPath>
</defs>
</svg>
