<svg width="48" height="48" viewBox="0 0 48 48" fill="none" xmlns="http://www.w3.org/2000/svg">
<g clip-path="url(#clip0_1_58)">
<path d="M24.5124 43.1457C22.7393 44.2803 20.6844 44.8898 18.5588 44.8898C12.4771 44.8898 7.52889 39.9416 7.52889 33.8599C7.52889 27.7837 12.4775 22.8405 18.5588 22.8405C20.6458 22.8405 22.6634 23.4317 24.4141 24.5266C24.7392 19.8393 23.4644 17.5535 26.3269 14.6542C24.6126 12.7326 23.1826 11.3511 22.4941 10.7257H13.8511C13.307 12.0358 12.4119 15.2464 15.6863 17.1131C16.1867 17.3986 16.3619 18.0359 16.0767 18.5362C15.7912 19.0372 15.1535 19.2117 14.6529 18.9259C12.8197 17.8808 11.8751 16.4861 11.4765 15.0449C10.9335 16.929 10.967 19.0252 12.7299 20.6098C13.1588 20.995 13.1947 21.6548 12.8094 22.0834C12.4218 22.513 11.7621 22.5465 11.3358 22.162C9.23347 20.2731 8.82946 17.8841 9.22184 15.5898C5.05949 20.7327 0.00344849 28.7757 0.00344849 36.7089C0.00344849 44.1211 9.55407 47.9993 18.9893 47.9993C21.7927 47.9993 24.4942 47.6568 26.9196 47.0011C25.7383 46.0114 24.8161 44.6707 24.5124 43.1457Z" fill="#FA522D"/>
<path d="M13.7335 8.63798H22.2754L26.4949 1.11061C26.6346 0.804275 26.4826 0.496232 26.4092 0.380792C26.3357 0.266043 26.123 0 25.7121 0H10.4997C10.0888 0 9.87607 0.266043 9.80264 0.380451C9.72922 0.495541 9.57758 0.803934 9.75278 1.17891L13.7335 8.63798Z" fill="#FA522D"/>
<path d="M26.4962 19.3977C27.1113 27.077 47.9589 26.9418 47.9964 19.1201C47.9964 15.6837 43.371 13.104 37.2384 13.104C33.6222 13.104 30.4153 13.9991 28.4415 15.5602C28.4408 15.5609 28.4404 15.5615 28.4398 15.5622C27.2889 16.4686 26.4893 17.6335 26.4893 19.1044C26.4893 19.1997 26.488 19.3024 26.4962 19.3977Z" fill="#FA522D"/>
<path d="M26.4997 31.3578V34.5268C26.6401 37.8698 31.2041 40.3724 37.2376 40.3724C43.3305 40.3724 47.93 37.8279 47.9956 34.4424V31.3476C45.7593 33.4944 41.8985 34.828 37.2376 34.828C32.5878 34.8284 28.7352 33.4991 26.4997 31.3578Z" fill="#FA522D"/>
<path d="M26.4997 38.9894V41.0918C26.6124 41.4617 25.7063 44.3021 29.7933 46.4041C31.7559 47.4341 34.3972 48 37.2376 48C43.3623 48 47.9877 45.4239 47.9956 42.0074L47.9952 38.9792C45.759 41.126 41.8982 42.4596 37.2372 42.4596C32.5878 42.4596 28.7356 41.1304 26.4997 38.9894Z" fill="#FA522D"/>
<path d="M37.2376 27.1814C33.5857 27.1814 29.2711 26.2948 26.6028 23.8233C26.5707 23.7936 26.5318 23.7676 26.5001 23.7376V26.8956C26.6404 30.2386 31.2045 32.7413 37.2379 32.7413C43.3309 32.7413 47.9304 30.1967 47.9959 26.8112V23.6986C45.3652 26.2248 40.92 27.1814 37.2376 27.1814Z" fill="#FA522D"/>
<path d="M24.4128 27.1036C22.7701 25.6969 20.7073 24.9274 18.5582 24.9274C13.6271 24.9274 9.61519 28.9344 9.61519 33.8591C9.61519 38.7902 13.6273 42.8021 18.5582 42.8021C20.7073 42.8021 22.7701 42.0323 24.4128 40.6253V34.5521C24.4107 34.4903 24.3995 34.4312 24.3995 34.369C24.3995 34.3458 24.4111 34.3264 24.4128 34.3035V27.1036ZM21.8613 30.6994L19.6947 34.2334H20.9583C21.2442 34.2334 21.4361 34.4568 21.4361 34.7235C21.4361 34.9981 21.2363 35.2009 20.9583 35.2009H19.1405V36.3744H20.9583C21.2452 36.3744 21.4361 36.5998 21.4361 36.8645C21.4361 37.1391 21.2363 37.3419 20.9583 37.3419H19.1405V38.4385C19.1405 38.7759 18.8611 39.0187 18.5595 39.0187C18.26 39.0187 17.9786 38.778 17.9786 38.4385V37.3419H16.1607C15.8824 37.3419 15.683 37.1391 15.683 36.8645C15.683 36.6001 15.8735 36.3744 16.1607 36.3744H17.9786V35.2009H16.1607C15.8824 35.2009 15.683 34.9981 15.683 34.7235C15.683 34.4571 15.8745 34.2334 16.1607 34.2334H17.4243L15.2578 30.6994C15.0829 30.418 15.1413 30.1038 15.3353 29.9255C15.5938 29.6855 16.0648 29.6588 16.3278 30.1185L18.5596 34.0271L20.7913 30.1185C21.055 29.6575 21.5273 29.6872 21.7838 29.9255C21.9771 30.1035 22.0365 30.4173 21.8613 30.6994Z" fill="#FA522D"/>
</g>
<defs>
<clipPath id="clip0_1_58">
<rect width="48" height="48" fill="white"/>
</clipPath>
</defs>
</svg>
