<svg width="134" height="41" viewBox="0 0 134 41" fill="none" xmlns="http://www.w3.org/2000/svg">
<path d="M0.86 40H7.88V23.8H21.488V17.32H7.88V8.68H24.782V2.2H0.86V40ZM30.3664 36.49C32.8504 39.136 36.1984 40.432 40.4644 40.432C44.7304 40.432 48.0784 39.136 50.5624 36.49C53.0464 33.844 54.2884 30.442 54.2884 26.392C54.2884 22.342 53.0464 18.994 50.5624 16.348C48.0784 13.702 44.7304 12.352 40.4644 12.352C36.1984 12.352 32.8504 13.702 30.3664 16.348C27.8824 18.994 26.6404 22.342 26.6404 26.392C26.6404 30.442 27.8824 33.844 30.3664 36.49ZM35.4964 20.506C36.7384 18.886 38.3584 18.076 40.4644 18.076C42.5704 18.076 44.1904 18.886 45.4324 20.506C46.6744 22.072 47.2684 24.07 47.2684 26.392C47.2684 28.714 46.6744 30.712 45.4324 32.332C44.1904 33.898 42.5704 34.708 40.4644 34.708C38.3584 34.708 36.7384 33.898 35.4964 32.332C34.2544 30.712 33.6604 28.714 33.6604 26.392C33.6604 24.07 34.2544 22.072 35.4964 20.506ZM66.8695 30.334C66.8695 22.072 69.8935 18.346 74.1595 18.346C75.1855 18.346 76.1575 18.616 76.9675 19.102L78.2095 12.892C77.0215 12.514 75.9415 12.352 74.9155 12.352C71.7295 12.352 68.8135 14.134 66.8695 17.212V12.784H60.1735V40H66.8695V30.334ZM83.4733 8.032C85.1473 9.706 87.9553 9.706 89.6293 8.032C91.3033 6.358 91.3033 3.55 89.6293 1.876C87.9553 0.201997 85.1473 0.201997 83.4733 1.876C81.7993 3.55 81.7993 6.358 83.4733 8.032ZM83.2033 40H89.8993V12.784H83.2033V40ZM106.573 19.858L102.145 12.784H95.1246L103.009 25.474L93.9906 40H101.011L106.573 31.144L112.135 40H119.155L110.137 25.474L118.021 12.784H111.001L106.573 19.858ZM125.225 39.028C126.953 40.756 129.977 40.756 131.705 39.028C133.433 37.3 133.433 34.276 131.705 32.548C129.977 30.82 126.953 30.82 125.225 32.548C123.497 34.276 123.497 37.3 125.225 39.028Z" fill="#1D1D1B"/>
</svg>
