<svg width="99" height="31" viewBox="0 0 99 31" fill="none" xmlns="http://www.w3.org/2000/svg">
<path d="M0.6 30H5.8V18H15.88V13.2H5.8V6.8H18.32V2H0.6V30ZM22.4566 27.4C24.2966 29.36 26.7766 30.32 29.9366 30.32C33.0966 30.32 35.5766 29.36 37.4166 27.4C39.2566 25.44 40.1766 22.92 40.1766 19.92C40.1766 16.92 39.2566 14.44 37.4166 12.48C35.5766 10.52 33.0966 9.52 29.9366 9.52C26.7766 9.52 24.2966 10.52 22.4566 12.48C20.6166 14.44 19.6966 16.92 19.6966 19.92C19.6966 22.92 20.6166 25.44 22.4566 27.4ZM26.2566 15.56C27.1766 14.36 28.3766 13.76 29.9366 13.76C31.4966 13.76 32.6966 14.36 33.6166 15.56C34.5366 16.72 34.9766 18.2 34.9766 19.92C34.9766 21.64 34.5366 23.12 33.6166 24.32C32.6966 25.48 31.4966 26.08 29.9366 26.08C28.3766 26.08 27.1766 25.48 26.2566 24.32C25.3366 23.12 24.8966 21.64 24.8966 19.92C24.8966 18.2 25.3366 16.72 26.2566 15.56ZM49.4959 22.84C49.4959 16.72 51.7359 13.96 54.8959 13.96C55.6559 13.96 56.3759 14.16 56.9759 14.52L57.8959 9.92C57.0159 9.64 56.2159 9.52 55.4559 9.52C53.0959 9.52 50.9359 10.84 49.4959 13.12V9.84H44.5359V30H49.4959V22.84ZM61.795 6.32C63.035 7.56 65.115 7.56 66.355 6.32C67.595 5.08 67.595 3 66.355 1.76C65.115 0.519998 63.035 0.519998 61.795 1.76C60.555 3 60.555 5.08 61.795 6.32ZM61.595 30H66.555V9.84H61.595V30ZM78.9056 15.08L75.6256 9.84H70.4256L76.2656 19.24L69.5856 30H74.7856L78.9056 23.44L83.0256 30H88.2256L81.5456 19.24L87.3856 9.84H82.1856L78.9056 15.08ZM92.7225 29.28C94.0025 30.56 96.2425 30.56 97.5225 29.28C98.8025 28 98.8025 25.76 97.5225 24.48C96.2425 23.2 94.0025 23.2 92.7225 24.48C91.4425 25.76 91.4425 28 92.7225 29.28Z" fill="#1D1D1B"/>
</svg>
