<svg width="30" height="30" viewBox="0 0 30 30" fill="none" xmlns="http://www.w3.org/2000/svg">
<g clip-path="url(#clip0_1_185)">
<rect width="30" height="30" fill="white"/>
<path fill-rule="evenodd" clip-rule="evenodd" d="M15 0C6.71573 0 0 6.71573 0 15C0 23.2843 6.71573 30 15 30C23.2843 30 30 23.2843 30 15C30 6.71573 23.2843 0 15 0ZM16.8404 21.6797H23.4274C23.4628 21.507 23.4316 21.38 23.2997 21.2571C23.0261 21.0021 22.7596 20.7394 22.4931 20.4767C22.3643 20.3499 22.2356 20.223 22.1061 20.097C22.0156 20.009 21.9708 19.9058 21.975 19.7803C21.9775 19.707 21.9797 19.6336 21.9797 19.5603C21.9797 19.2698 21.9798 18.9794 21.9799 18.689C21.9802 17.2423 21.9804 15.7958 21.9797 14.3492C21.9792 13.3159 21.9776 12.2825 21.9761 11.2491C21.9756 10.9043 21.9751 10.5596 21.9746 10.2148C21.9744 10.0936 22.0205 9.99508 22.1084 9.91144C22.24 9.78618 22.371 9.66013 22.5019 9.53408C22.7825 9.26392 23.0631 8.99376 23.3508 8.73137C23.4854 8.60862 23.4888 8.48223 23.4621 8.32802C23.4508 8.32737 23.4402 8.32661 23.43 8.32588C23.4093 8.3244 23.3905 8.32305 23.3716 8.32305C23.0432 8.323 22.7148 8.32301 22.3864 8.32301C21.2286 8.32305 20.0709 8.32308 18.9132 8.32039C18.8233 8.32019 18.7974 8.36112 18.7693 8.43115C17.6999 11.0992 16.6289 13.7667 15.5578 16.4341C15.5463 16.4629 15.5332 16.491 15.5175 16.5245C15.5097 16.5413 15.5012 16.5595 15.4919 16.5799C15.4809 16.5573 15.4711 16.5373 15.4621 16.5189C15.4463 16.4867 15.4329 16.4595 15.4203 16.432L15.158 15.8577L15.1576 15.8567C14.029 13.3851 12.9003 10.9135 11.7739 8.44074C11.7353 8.35608 11.6958 8.3198 11.5958 8.32007C10.3437 8.32328 9.09152 8.3231 7.83938 8.32292C7.54821 8.32287 7.25705 8.32283 6.96589 8.32283H6.80685C6.81572 8.3639 6.82061 8.40618 6.82535 8.44721C6.83515 8.53207 6.84434 8.6116 6.88691 8.66416C7.29879 9.17275 7.71923 9.67443 8.13967 10.1761C8.24582 10.3028 8.35198 10.4294 8.45799 10.5562C8.56448 10.6835 8.61715 10.828 8.61705 10.9941C8.6158 13.4447 8.61509 15.8953 8.61463 18.3458C8.61463 18.4069 8.61507 18.4683 8.62171 18.5289C8.64893 18.7774 8.58011 18.9962 8.42183 19.1879C8.28158 19.3578 8.14161 19.528 8.00164 19.6981C7.58185 20.2084 7.16208 20.7186 6.73488 21.2226C6.61935 21.3589 6.61084 21.4914 6.62665 21.6461H11.6298C11.6716 21.4677 11.6193 21.3371 11.5067 21.2036C11.0981 20.7191 10.6949 20.2299 10.2917 19.7408C10.1371 19.5532 9.98252 19.3656 9.8276 19.1783C9.68091 19.001 9.61291 18.7972 9.61773 18.5682C9.61856 18.529 9.61981 18.4899 9.62106 18.4507C9.6232 18.384 9.62534 18.3172 9.62535 18.2505C9.62573 16.6478 9.62571 15.0451 9.62568 13.4423C9.62568 13.0552 9.62567 12.6681 9.62567 12.281V12.1344C9.6753 12.1729 9.69492 12.212 9.71322 12.2519C10.2193 13.3543 10.7254 14.4567 11.2315 15.5591C12.1101 17.4729 12.9888 19.3867 13.8675 21.3005C13.883 21.3343 13.8963 21.3719 13.9095 21.4096C13.9412 21.4998 13.9731 21.5904 14.0366 21.6306C14.0974 21.6691 14.1842 21.6644 14.2726 21.6596C14.3215 21.6569 14.3708 21.6542 14.4165 21.6588C14.5167 21.6688 14.5557 21.6277 14.5911 21.5377C15.7466 18.6001 16.905 15.6636 18.0633 12.7271L18.2589 12.2311C18.2683 12.2073 18.2787 12.1839 18.289 12.1605C18.2941 12.149 18.2992 12.1375 18.3042 12.126C18.3246 12.1483 18.3268 12.1669 18.3268 12.1855C18.3268 12.7444 18.3268 13.3033 18.3267 13.8623C18.3266 15.8192 18.3264 17.7761 18.328 19.733C18.3281 19.887 18.2765 20.0043 18.1652 20.1104C18.0084 20.26 17.8533 20.4115 17.6982 20.563C17.4535 20.8021 17.2087 21.0413 16.957 21.273C16.8229 21.3966 16.8224 21.5238 16.8404 21.6797Z" fill="black"/>
</g>
<defs>
<clipPath id="clip0_1_185">
<rect width="30" height="30" fill="white"/>
</clipPath>
</defs>
</svg>
